<svg width="168" height="154" viewBox="0 0 168 154" fill="none" xmlns="http://www.w3.org/2000/svg">
<g id="plane">
<g id="Group">
<path id="Vector" d="M96.9805 86.8473C95.6223 87.1516 94.2995 87.7151 93.0942 88.5025C89.9539 90.5038 88.1269 93.3606 89.0137 94.8827C89.9005 96.4048 93.165 96.0155 96.3053 94.0142C97.5269 93.2547 98.6121 92.2839 99.4941 91.1619C99.9034 90.6198 99.9769 89.9443 99.6817 89.4394L98.5297 87.462C98.2366 86.9555 97.6286 86.7146 96.9805 86.8473Z" fill="#D5D6DB"/>
<path id="Vector_2" d="M89.095 59.8543C88.1102 60.0751 87.1509 60.4839 86.2768 61.0549C84.0003 62.5057 82.6748 64.5771 83.3173 65.6799C83.9597 66.7827 86.3278 66.5002 88.6041 65.0495C89.4898 64.4985 90.2766 63.7942 90.9163 62.9806C91.2128 62.5876 91.2659 62.0983 91.0519 61.7322L90.2178 60.3004C90.0055 59.9333 89.565 59.7582 89.095 59.8543Z" fill="#D5D6DB"/>
<path id="Vector_3" d="M76.2827 60.9846C76.0635 60.9601 75.8297 61.0186 75.627 61.1481L70.2797 64.5563C69.8324 64.8405 69.6534 65.3878 69.8803 65.779C69.9322 65.8686 70.0032 65.9452 70.0894 66.0042L83.269 75.0891L101.1 63.7244L76.2827 60.9846Z" fill="#029BC5"/>
<path id="Vector_4" d="M132.65 59.7L84.1264 90.2521L55.4182 101.678L40.7774 104.588L39.1667 101.851L120.049 51.9045C122.459 50.4096 125.145 49.492 127.833 49.2449C129.01 49.143 130.173 49.1822 131.294 49.361C132.288 49.5117 133.231 49.8024 134.094 50.2245C135.058 50.7027 136.892 50.7579 137.486 51.7107C137.488 51.7092 138.89 56.0836 132.65 59.7V59.7Z" fill="#E1E6E9"/>
<path id="Vector_5" d="M84.7696 86.2096L63.7777 119.68C63.5155 120.15 63.6712 120.676 64.125 120.855C64.4035 120.965 64.7444 120.922 65.0307 120.74L70.3739 117.35C71.4016 116.697 72.3115 115.869 73.0476 114.915L113.757 67.0464L84.7696 86.2096Z" fill="#029BC5"/>
<path id="Vector_6" d="M31.7984 85.092C31.4483 84.9723 31.0316 85.0344 30.6798 85.2585L26.263 88.0719C25.6612 88.455 25.4214 89.1914 25.7272 89.7171C25.7855 89.817 25.8612 89.905 25.9519 89.9774L38.3268 99.8895L51.3376 91.7612L31.7984 85.092Z" fill="#029BC5"/>
<path id="Vector_7" d="M42.4744 101.677L35.814 111.006C35.7164 111.14 35.7393 111.308 35.8653 111.382C35.9561 111.435 36.0801 111.425 36.1808 111.358L40.3084 108.742C40.3405 108.721 40.3695 108.696 40.3935 108.667L50.1255 96.832L42.4744 101.677Z" fill="#029BC5"/>
<path id="Vector_8" d="M130.497 49.7632C129.343 49.5778 128.146 49.5382 126.933 49.6448C125.752 51.2959 124.998 53.1506 124.744 55.024C124.726 55.4003 125.029 55.6712 125.422 55.629C125.544 55.6158 125.665 55.5729 125.775 55.5041L133.381 50.6598C132.492 50.2212 131.521 49.9194 130.497 49.7632Z" fill="#029BC5"/>
<path id="Vector_9" d="M113.921 58.6714L118.888 55.5341L123.514 63.4035L118.547 66.5408L113.921 58.6714Z" fill="#D5D6DB"/>
<g id="Group_2">
<path id="Vector_10" d="M110.796 61.7836C110.198 62.1628 109.958 62.8917 110.262 63.4114L110.755 64.2534C111.078 64.7599 111.818 64.849 112.406 64.4522C112.966 64.0744 113.191 63.3877 112.921 62.8806L112.429 62.0386C112.125 61.5193 111.395 61.4051 110.796 61.7836V61.7836Z" fill="#3A556A"/>
<path id="Vector_11" d="M106.333 64.5561C105.734 64.9353 105.495 65.6642 105.799 66.1839L106.291 67.0259C106.615 67.5324 107.354 67.6214 107.942 67.2247C108.502 66.8469 108.727 66.1601 108.458 65.6531L107.965 64.8111C107.662 64.2919 106.931 64.1777 106.333 64.5561V64.5561Z" fill="#3A556A"/>
<path id="Vector_12" d="M101.867 67.3294C101.27 67.7091 101.031 68.437 101.335 68.9563L101.827 69.7983C102.151 70.3048 102.89 70.3938 103.478 69.9971C104.038 69.6193 104.264 68.9326 103.994 68.4255L103.502 67.5835C103.198 67.0638 102.466 66.95 101.867 67.3294V67.3294Z" fill="#3A556A"/>
<path id="Vector_13" d="M97.4036 70.1018C96.8057 70.4815 96.5673 71.2095 96.8709 71.7288L97.3632 72.5708C97.687 73.0773 98.4262 73.1664 99.0144 72.7696C99.5742 72.3918 99.7997 71.7051 99.5299 71.198L99.0377 70.356C98.7336 69.8364 98.002 69.7226 97.4036 70.1018V70.1018Z" fill="#3A556A"/>
<path id="Vector_14" d="M92.9403 72.8745C92.3421 73.2543 92.1036 73.9826 92.4074 74.5022L92.8999 75.3445C93.2035 75.8638 93.9347 75.9775 94.5331 75.5985C95.1314 75.2195 95.3703 74.4912 95.0667 73.9719L94.5741 73.1296C94.2713 72.6098 93.5403 72.4953 92.9416 72.8737C92.9411 72.874 92.9408 72.8742 92.9403 72.8745Z" fill="#3A556A"/>
<path id="Vector_15" d="M88.4767 75.647C87.8785 76.0268 87.64 76.7551 87.9437 77.2746L88.4363 78.117C88.7399 78.6363 89.4711 78.75 90.0695 78.371C90.6678 77.9919 90.9067 77.2637 90.6031 76.7444L90.1105 75.902C89.8076 75.3822 89.0767 75.2678 88.478 75.6462C88.4775 75.6465 88.477 75.6468 88.4767 75.647Z" fill="#3A556A"/>
<path id="Vector_16" d="M84.0128 78.4194C83.4146 78.7993 83.1761 79.5275 83.4799 80.047L83.9724 80.8894C84.2768 81.4082 85.0083 81.5208 85.606 81.1412C86.2027 80.7624 86.4411 80.0357 86.1389 79.517L85.6463 78.6747C85.3428 78.155 84.6117 78.0407 84.0128 78.4194Z" fill="#3A556A"/>
<path id="Vector_17" d="M79.5489 81.1919C78.9507 81.5717 78.7122 82.3 79.016 82.8195L79.5085 83.6619C79.8129 84.1807 80.5445 84.2933 81.1422 83.9138C81.7388 83.5349 81.9772 82.8082 81.675 82.2895L81.1825 81.4471C80.879 80.9274 80.1478 80.8131 79.5489 81.1919Z" fill="#3A556A"/>
<path id="Vector_18" d="M75.0853 83.9644C74.4871 84.3442 74.2486 85.0725 74.5524 85.592L75.0449 86.4343C75.3493 86.9531 76.0808 87.0657 76.6785 86.6862C77.2752 86.3073 77.5136 85.5806 77.2114 85.0619L76.7189 84.2196C76.4151 83.7001 75.6839 83.5858 75.0853 83.9644Z" fill="#3A556A"/>
<path id="Vector_19" d="M70.6202 86.7375C70.0219 87.1166 69.783 87.8448 70.0866 88.3641L70.0873 88.3652L70.5798 89.2076C70.8842 89.7264 71.6158 89.839 72.2135 89.4594C72.8101 89.0805 73.0485 88.3538 72.7463 87.8351L72.2538 86.9928C71.9503 86.4731 71.2191 86.3588 70.6202 86.7375Z" fill="#3A556A"/>
<path id="Vector_20" d="M66.1578 89.5093C65.5595 89.8883 65.3206 90.6165 65.6243 91.1358L65.6249 91.1369L66.1174 91.9792C66.4218 92.498 67.1534 92.6106 67.7511 92.231C68.3478 91.8522 68.5862 91.1255 68.284 90.6068L67.7914 89.7645C67.4876 89.245 66.7564 89.1307 66.1578 89.5093Z" fill="#3A556A"/>
</g>
</g>
</g>
</svg>
